<svg xmlns="http://www.w3.org/2000/svg" viewBox="0 0 531.97 154.11"><defs><style>.cls-1{fill:#1a1919;}.cls-2{fill:#1b1a1a;}.cls-3{fill:#181717;}.cls-4{fill:#1a191a;}.cls-5{fill:#1c1b1b;}.cls-6{fill:#1d1c1c;}.cls-7{font-size:24px;fill:#231f20;font-family:Inter-Bold, Inter;font-weight:700;letter-spacing:0.4em;}</style></defs><g id="Layer_2" data-name="Layer 2"><g id="Layer_1-2" data-name="Layer 1"><path class="cls-1" d="M515.16,54.43c-.72,1-1.49,2-2.16,3q-8.31,13.05-16.61,26.12a.83.83,0,0,1-.08.12c-1.2,1.82-1.66,1.84-2.83,0-3.23-5.06-6.38-10.16-9.64-15.21-2.94-4.58-6-9.1-9-13.64a2,2,0,0,0-1.12-.79v3.33q-.08,22.46-.16,44.9c0,3.33-.05,3.33-3.4,3.35s-6.78,0-10.17,0c-2.1,0-2.25,0-2.25-2.2q-.09-19.48-.14-39L457.5,21.6c0-1.84.05-1.88,1.92-1.88,3.15,0,6.31.05,9.46.05a4,4,0,0,1,3.79,2.11c4.2,6.94,8.51,13.83,12.84,20.7,2.82,4.47,5.75,8.88,8.61,13.33.72,1.13,1.24.66,1.75-.14,4.18-6.51,8.39-13,12.52-19.56,3.07-4.88,6-9.82,9-14.76a3,3,0,0,1,3.14-1.77c3,.21,6.11.07,9.17.11,2.09,0,2.24.18,2.24,2.27q-.12,37.77-.23,75.55c0,2.12-.06,4.23,0,6.35,0,1.18-.35,1.71-1.61,1.71-4.18,0-8.37,0-12.56.06-1,0-1.5-.35-1.55-1.36s-.23-1.87-.24-2.81q-.13-22.87-.23-45.75V54.58Z"/><path class="cls-2" d="M45.32,70.63c.11-1.89.31-3.78.32-5.68q.09-17.58.11-35.17c0-2.82,0-5.65,0-8.47,0-1.29.47-1.63,1.66-1.61,4,.05,8.09,0,12.14,0,1.74,0,2,.21,2,2q0,24.15,0,48.3,0,16.8,0,33.61c0,2.15,0,2.16-2.1,2.13-2.77,0-5.55-.13-8.33-.11a3.9,3.9,0,0,1-3.75-2.2c-4.51-7.8-9-15.61-13.68-23.3-3.46-5.7-7.21-11.22-10.81-16.82-1.88-2.92-3.72-5.86-5.58-8.78-.23-.37-.51-.71-.77-1.06l-.39.08a13,13,0,0,0-.19,1.51q-.09,23.73-.16,47.45c0,.52,0,1,0,1.56.09,1.13-.34,1.59-1.54,1.57-4-.06-8,0-12,0-1.78,0-2-.17-2-1.93,0-7.91,0-15.81,0-23.72q0-18-.07-36c0-7.39,0-14.78-.06-22.17,0-1.49.66-2,1.9-1.94,3.58,0,7.16.05,10.73.27.68,0,1.5.88,1.92,1.56,1.65,2.62,3.12,5.35,4.74,8q8,13,16,25.88c3.16,5.08,6.42,10.11,9.63,15.16Z"/><path class="cls-1" d="M282.52,62.11v-40c0-2.45,0-2.46,2.41-2.45,3.86,0,7.72.09,11.58.06,1.29,0,1.85.35,1.84,1.77-.11,10.64-.15,21.27-.23,31.91,0,.85,0,1.42,1.16,1.41q11.66,0,23.3,0c1.13,0,1.43-.32,1.43-1.43,0-10.64,0-21.28,0-31.92,0-1.87,0-1.87,1.87-1.87,4.24,0,8.47,0,12.71,0,1.23,0,1.64.41,1.64,1.64q-.11,29.93-.15,59.87,0,10.09-.12,20.19c0,4.11-.06,4.09-4.18,4.12-3.06,0-6.12.13-9.18.16-2.18,0-2.48-.22-2.49-2.4-.05-9.51-.06-19-.08-28.52,0-1-.07-2.08,0-3.11s-.4-1.3-1.33-1.3q-11.64-.08-23.29-.19c-1.27,0-1.43.68-1.43,1.71q0,15.18-.07,30.36c0,3.45,0,3.42-3.48,3.31s-6.86-.14-10.3-.14c-.94,0-1.34-.28-1.34-1.27,0-5.08-.1-10.17-.11-15.25,0-8.89,0-17.79,0-26.68Z"/><path class="cls-1" d="M397.23,35.25H361.54V54.81c.84,0,1.67,0,2.49,0,7.91,0,15.82.08,23.73,0,1.42,0,1.91.47,1.9,1.86,0,3.85.09,7.71.1,11.57,0,2-.18,2.17-2.16,2.17l-25,0c-.32,0-.65,0-1.12.06,0,.42-.1.82-.1,1.22q0,8.61-.05,17.22c0,1.84,0,1.89,1.9,1.9Q379.13,91,395,91c2.41,0,2.44,0,2.47,2.44,0,3.62,0,7.24.11,10.86,0,1.06-.39,1.38-1.42,1.38q-23.51-.07-47-.12c-3,0-3.28-.29-3.29-3.37q-.11-34.87-.17-69.75c0-3.81,0-7.62-.05-11.43,0-1.19.41-1.41,1.47-1.41q21.24,0,42.5,0h6.21c.77,0,1.42.11,1.41,1.11C397.22,25.52,397.23,30.27,397.23,35.25Z"/><path class="cls-1" d="M279.68,105.46c-4.72,0-9.23,0-13.74,0a2.62,2.62,0,0,1-2.51-1.71c-1.49-3.29-3.14-6.51-4.63-9.8a2.38,2.38,0,0,0-2.46-1.63q-18,0-36,0A2.2,2.2,0,0,0,218,93.84c-1.3,3.16-2.72,6.28-4,9.44a3.24,3.24,0,0,1-3.41,2.31c-4.14-.06-8.28.08-12.42.15-1.67,0-1.9-.26-1.18-1.78,3.23-6.83,6.52-13.63,9.73-20.47,5.06-10.78,10-21.59,15.09-32.38Q228,37.87,234.23,24.64c1-2.15,2-4.32,3.08-6.46a5.13,5.13,0,0,1,1-1,4.86,4.86,0,0,1,.87,1q3.47,7.31,6.88,14.64c4.12,8.9,8.26,17.8,12.34,26.72s7.94,17.7,12,26.51c2.82,6.09,5.81,12.11,8.72,18.16C279.32,104.58,279.47,105,279.68,105.46Zm-41.26-55H238l-12.67,27,.31.44h25.28C247.54,68.41,242.57,59.59,238.42,50.41Z"/><path class="cls-3" d="M89,36.45a20.79,20.79,0,0,0,2.59,1.12c.25.08,1-.42,1-.73.45-2.58.75-5.2,1.19-7.79.74-4.35,1.45-8.7,2.41-13A3.81,3.81,0,0,1,98.4,13.9c3.4-1.36,6.87-2.55,10.35-3.69A2.42,2.42,0,0,0,110.63,8c.36-2.35,1-4.67,1.58-7,.09-.37.56-.64.86-1,.3.37.79.69.88,1.11.58,2.51,1,5,1.61,7.54a1.83,1.83,0,0,0,1.09,1c3.41,1.21,6.79,2.51,10.28,3.44,2.63.7,3.42,2.45,3.73,4.78.83,6.1,1.69,12.2,2.49,18.31.15,1.15.63,1.5,1.67,1.1.68-.26,1.33-.58,1.68-.74-.47-1.79-1-3.32-1.26-4.89-.61-4-1.07-8.1-1.63-12.15-.26-1.94.34-2.58,2.13-1.75,2.29,1.06,4.67,1.95,6.92,3.1A5.16,5.16,0,0,1,144.47,23q3.21,5.55,6.25,11.19a1.68,1.68,0,0,1-.14,1.51,38.58,38.58,0,0,0-6.67,11.51C143,49.74,141.07,51,138.7,52Q127,56.76,115.34,61.78a7,7,0,0,1-5.83,0c-7.69-3.28-15.36-6.61-23.1-9.77-3.11-1.28-4.62-3.54-5.79-6.58a69.93,69.93,0,0,0-4.84-9.17,2.86,2.86,0,0,1-.06-3.15c1.81-3.13,3.43-6.38,5.36-9.42a10.09,10.09,0,0,1,3.41-3.18,44.52,44.52,0,0,1,6-2.64c1.35-.54,1.85-.19,1.75,1.28-.19,2.49-.49,5-.8,7.43-.25,2.05-.46,4.11-.9,6.12A23.32,23.32,0,0,1,89,36.45Z"/><path class="cls-4" d="M189.78,105.39a8,8,0,0,1-.89-1.26c-3.4-7.84-6.67-15.74-10.19-23.53-2.59-5.74-5.54-11.32-8.27-17-3.18-6.6-6.25-13.25-9.46-19.83-3.63-7.42-7.35-14.79-11-22.19-.69-1.39-.5-1.87,1-1.86,4.52,0,9,.12,13.55.18a2.89,2.89,0,0,1,2.83,1.9c3.13,6.82,6.35,13.6,9.5,20.42q5.06,11,10,22c.92,2,1.74,4.13,2.74,6.54.53-1,.94-1.58,1.25-2.26q3.75-8.25,7.47-16.52,7-15.46,13.9-30.94a2,2,0,0,1,2.13-1.41c4.51,0,9,0,13.55,0,1.65,0,1.81.26,1.1,1.8Q221.35,38,213.74,54.43q-8.53,18.39-17.12,36.75c-1.86,4-3.66,8-5.51,12A23,23,0,0,1,189.78,105.39Z"/><path class="cls-1" d="M402.65,62.59c0-13.7,0-27.4,0-41.1,0-1.49.52-1.86,1.88-1.85,3.95.05,7.9,0,11.86,0,2.26,0,2.36.05,2.39,2.38q.11,9.4.11,18.79,0,24.07-.14,48.16c0,1.43.51,1.85,1.9,1.85,10,0,20.05.1,30.07.13,2.36,0,2.37,0,2.37,2.29,0,3.63,0,7.25,0,10.88,0,1.23-.44,1.61-1.66,1.61q-23.52,0-47,0c-1.44,0-1.58-.65-1.58-1.8q0-20.68,0-41.38Z"/><path class="cls-5" d="M109,71.69c-.56,5.5-1.24,12.09-1.89,18.69-.5,5.1-1,10.2-1.45,15.3-.12,1.26-.28,2.53-.5,3.77-.29,1.64-1.63,2.12-2.88,1-2.55-2.3-5-4.72-7.54-7C87.64,97,80.6,90.61,73.38,84.38,71.25,82.55,70.31,80.72,71,78c.49-2.1.73-4.25,1.13-6.37.29-1.48.82-1.72,2-.77,4.78,4,9.53,8.08,14.28,12.12,1.47,1.25,2.94,2.49,4.39,3.76.76.66,1.54,1.39,2.59.76.64-.39.45-2.88-.25-3.54C94,83,93,82.19,91.93,81.29c-5.36-4.71-10.67-9.5-16.11-14.12-1.68-1.42-2.07-3.28-2.6-5.14-1.48-5.13-2.9-10.28-4.36-15.42a3.67,3.67,0,0,1,.65-3.81c.94-1,1.79-2.17,2.68-3.25.65-.8,1.13-.82,1.87.05a20,20,0,0,1,4.69,10.66c.18,1.34.66,2.64.88,4a2.68,2.68,0,0,0,1.94,2.16q12.9,5.1,25.77,10.23C109.16,67.35,109.19,67.36,109,71.69Z"/><path class="cls-6" d="M116.18,68.43c0-1.19,0-1.16,2.08-2,7.5-2.85,15-5.74,22.48-8.6a18.75,18.75,0,0,1,2.38-.85c2.06-.49,2.79-2,3.16-3.84,1-5.12,2.7-10,6.13-14,.5-.6.9-.76,1.32-.18a54.92,54.92,0,0,1,3.82,5.57c.34.61,0,1.73-.29,2.55-1.63,4.95-3.66,9.8-4.89,14.84-1,4-3.57,6.34-6.49,8.66-1.69,1.34-3.34,2.73-5,4.12-3.54,3-7.06,6-10.61,9-.89.76-1.22,3.38-.33,4a1.76,1.76,0,0,0,1.64-.26c3.7-3.18,7.31-6.48,11-9.67,2.78-2.38,5.64-4.67,8.48-7,1.29-1.06,1.84-.83,2.08.83.36,2.42.64,4.85,1.06,7.26a3.76,3.76,0,0,1-1.29,3.77c-3.5,3.07-7,6.13-10.45,9.24-4.72,4.25-9.4,8.53-14.1,12.8-2,1.8-3.95,3.62-6,5.34a2.47,2.47,0,0,1-1.94.63c-.49-.19-.89-1.15-1-1.8-.41-4.4-.7-8.81-1.07-13.22-.5-6.08-1-12.17-1.56-18.25C116.64,74.85,116.46,72.18,116.18,68.43Z"/><text class="cls-7" transform="translate(183.23 144.29)">STUDIOS</text></g></g></svg>